<svg xmlns="http://www.w3.org/2000/svg" xmlns:svg="http://www.w3.org/2000/svg" xmlns:xlink="http://www.w3.org/1999/xlink" id="svg5193" width="69.286" height="69.286" version="1.0"><defs id="defs5195"><linearGradient id="linearGradient5259"><stop style="stop-color:#fff;stop-opacity:1" id="stop5261" offset="0"/><stop style="stop-color:#fff;stop-opacity:0" id="stop5263" offset="1"/></linearGradient><filter id="filter5135" width="1.411" height="1.035" x="-.206" y="-.017"><feGaussianBlur id="feGaussianBlur5137" stdDeviation=".707"/></filter><filter id="filter5105"><feGaussianBlur id="feGaussianBlur5107" stdDeviation=".753"/></filter><linearGradient id="linearGradient5265" x1="352.253" x2="366.135" y1="253.857" y2="320.361" gradientUnits="userSpaceOnUse" xlink:href="#linearGradient5259"/><linearGradient id="linearGradient6301" x1="352.253" x2="364.521" y1="253.857" y2="320.038" gradientTransform="matrix(0.7822581,0,0,0.7822581,122.95232,51.214093)" gradientUnits="userSpaceOnUse" xlink:href="#linearGradient5259"/><filter id="filter6374" width="1.118" height="1.315" x="-.059" y="-.157"><feGaussianBlur id="feGaussianBlur6376" stdDeviation="2.775"/></filter><linearGradient id="linearGradient2216" x1="352.253" x2="366.135" y1="253.857" y2="320.361" gradientUnits="userSpaceOnUse" xlink:href="#linearGradient5259"/><linearGradient id="linearGradient2218" x1="352.253" x2="364.521" y1="253.857" y2="320.038" gradientTransform="matrix(0.7822581,0,0,0.7822581,122.95232,51.214093)" gradientUnits="userSpaceOnUse" xlink:href="#linearGradient5259"/><linearGradient id="linearGradient5167" x1="28.296" x2="30.379" y1="12.338" y2="17.893" gradientUnits="userSpaceOnUse" xlink:href="#linearGradient5161"/><linearGradient id="linearGradient4190" x1="13.843" x2="15.43" y1="12.552" y2="28.766" gradientUnits="userSpaceOnUse" xlink:href="#linearGradient4184"/><linearGradient id="linearGradient3177" x1="19.815" x2="28.057" y1="27.354" y2="27.354" gradientUnits="userSpaceOnUse" xlink:href="#linearGradient3179"/><filter id="filter14923"><feGaussianBlur id="feGaussianBlur14925" stdDeviation=".378"/></filter><linearGradient id="linearGradient11000" x1="-62.374" x2="-23.944" y1="57.577" y2="96.575" gradientUnits="userSpaceOnUse" xlink:href="#linearGradient745"/><linearGradient id="linearGradient9045" x1="22.37" x2="30.506" y1="29.355" y2="39.667" gradientTransform="matrix(0.8,0,0,0.8,0.5875002,1.65e-5)" gradientUnits="userSpaceOnUse" xlink:href="#linearGradient3179"/><linearGradient id="linearGradient5072" x1="5.235" x2="51.851" y1="8.558" y2="55.346" gradientTransform="matrix(1.041275,0,0,1.045966,72.14327,-4.658692)" gradientUnits="userSpaceOnUse" xlink:href="#linearGradient745"/><linearGradient id="linearGradient5071" x1="4.288" x2="36.089" y1="10.142" y2="42.251" gradientTransform="matrix(1.112312,0,0,0.899028,74.75124,-2.762332)" gradientUnits="userSpaceOnUse" xlink:href="#linearGradient570"/><linearGradient id="linearGradient5070" x1="10.1" x2="59.649" y1="2.636" y2="51.756" gradientTransform="matrix(0.983945,0,0,1.106909,71.90738,-4.833742)" gradientUnits="userSpaceOnUse" xlink:href="#linearGradient563"/><linearGradient id="linearGradient5069" x1="17.743" x2="28.802" y1="12.316" y2="23.288" gradientTransform="matrix(0.735719,0,0,1.359215,74.75124,-2.762332)" gradientUnits="userSpaceOnUse" xlink:href="#linearGradient570"/><linearGradient id="linearGradient5068" x1="39.651" x2="41.748" y1="2.554" y2="4.652" gradientTransform="matrix(0.431713,0,0,2.316353,74.75124,-2.762332)" gradientUnits="userSpaceOnUse" xlink:href="#linearGradient570"/><linearGradient id="linearGradient5067" x1="54.729" x2="57.527" y1="2.042" y2="4.766" gradientTransform="matrix(0.550885,0,0,1.815261,74.75124,-2.762332)" gradientUnits="userSpaceOnUse" xlink:href="#linearGradient570"/><linearGradient id="linearGradient5066" x1="31.105" x2="36.896" y1="23.912" y2="29.734" gradientTransform="matrix(0.75735,0,0,1.320394,74.75124,-2.762332)" gradientUnits="userSpaceOnUse" xlink:href="#linearGradient570"/><linearGradient id="linearGradient5056" x1="4.288" x2="36.089" y1="10.142" y2="42.251" gradientTransform="matrix(1.133053,0,0,0.915792,-26.297187,-12.258632)" gradientUnits="userSpaceOnUse" xlink:href="#linearGradient570"/><linearGradient id="linearGradient5051" x1="31.105" x2="36.896" y1="23.912" y2="29.734" gradientTransform="matrix(0.771472,0,0,1.345015,-483.11682,-471.75419)" gradientUnits="userSpaceOnUse" xlink:href="#linearGradient570"/><linearGradient id="linearGradient5046" x1="39.651" x2="41.748" y1="2.554" y2="4.652" gradientTransform="matrix(0.439763,0,0,2.359546,-4.718689e-2,-8.632088e-3)" gradientUnits="userSpaceOnUse" xlink:href="#linearGradient570"/><linearGradient id="linearGradient5042" x1="54.729" x2="57.527" y1="2.042" y2="4.766" gradientTransform="matrix(0.561157,0,0,1.84911,-4.718689e-2,-8.632088e-3)" gradientUnits="userSpaceOnUse" xlink:href="#linearGradient570"/><linearGradient id="linearGradient5036" x1="17.743" x2="28.802" y1="12.316" y2="23.288" gradientTransform="matrix(0.749438,0,0,1.38456,-483.46161,-470.50189)" gradientUnits="userSpaceOnUse" xlink:href="#linearGradient570"/><linearGradient id="linearGradient5031" x1="27.31" x2="43.831" y1="2.978" y2="49.82" gradientTransform="matrix(0.8031806,0,0,0.8923175,-1.177292,-2.542645)" gradientUnits="userSpaceOnUse" xlink:href="#linearGradient563"/><linearGradient id="linearGradient5016" x1="10.1" x2="59.649" y1="2.636" y2="51.756" gradientTransform="matrix(0.942821,0,0,1.060646,13.44985,-50.73252)" gradientUnits="userSpaceOnUse" xlink:href="#linearGradient563"/><linearGradient id="linearGradient4993" x1="5.235" x2="51.851" y1="8.558" y2="55.346" gradientTransform="matrix(0.9303259,0,0,0.9428678,-70.321362,4.8198964)" gradientUnits="userSpaceOnUse" xlink:href="#linearGradient745"/><linearGradient id="linearGradient750" x1=".011" x2=".989" y1="-.647" y2=".529" gradientTransform="translate(-7.958619e-8,1.222231e-6)" gradientUnits="objectBoundingBox" spreadMethod="pad" xlink:href="#linearGradient570"/><linearGradient id="linearGradient749" x1=".017" x2=".958" y1=".023" y2=".984" gradientUnits="objectBoundingBox" spreadMethod="pad" xlink:href="#linearGradient570"/><linearGradient id="linearGradient578" x1=".008" x2=".992" y1=".016" y2=".992" gradientUnits="objectBoundingBox" spreadMethod="pad" xlink:href="#linearGradient745"/><linearGradient id="linearGradient575" x1=".04" x2="1" y1=".016" y2=".984" xlink:href="#linearGradient570"/><linearGradient id="linearGradient573" x1=".018" x2=".982" y1=".008" y2=".992" xlink:href="#linearGradient570"/><linearGradient id="linearGradient569" x1=".007" x2="1.004" y1=".062" y2=".969" xlink:href="#linearGradient570"/><linearGradient id="linearGradient566" x1=".02" x2=".98" y1="0" y2=".969" xlink:href="#linearGradient563"/><linearGradient id="linearGradient563"><stop id="stop564" offset="0" style="stop-color:#d9cce6;stop-opacity:1"/><stop id="stop565" offset="1" style="stop-color:#73667f;stop-opacity:1"/></linearGradient><linearGradient id="linearGradient570"><stop id="stop571" offset="0" style="stop-color:#fff;stop-opacity:1"/><stop id="stop572" offset="1" style="stop-color:#fff;stop-opacity:0"/></linearGradient><linearGradient id="linearGradient745"><stop id="stop746" offset="0" style="stop-color:#fff;stop-opacity:1"/><stop id="stop747" offset="1" style="stop-color:#d9cce6;stop-opacity:1"/></linearGradient><linearGradient id="linearGradient2202" x1="24.011" x2="25.827" y1="31.786" y2="36.987" gradientTransform="matrix(0.8,0,0,0.8,-4.4991326,-20.583662)" gradientUnits="userSpaceOnUse" xlink:href="#linearGradient570"/><linearGradient id="linearGradient2206" x1="24.011" x2="25.807" y1="31.786" y2="36.109" gradientTransform="matrix(0.8,0,0,0.8,6.4582783,-21.685225)" gradientUnits="userSpaceOnUse" xlink:href="#linearGradient570"/><linearGradient id="linearGradient3179"><stop style="stop-color:#0c0000;stop-opacity:.14102565" id="stop3181" offset="0"/><stop style="stop-color:#000;stop-opacity:.35897437" id="stop3183" offset="1"/></linearGradient><linearGradient id="linearGradient3195"><stop id="stop3197" offset="0" style="stop-color:#fcfff9;stop-opacity:1"/><stop id="stop3199" offset="1" style="stop-color:#fff;stop-opacity:.03921569"/></linearGradient><linearGradient id="linearGradient4184"><stop id="stop4186" offset="0" style="stop-color:#fff;stop-opacity:1"/><stop id="stop4188" offset="1" style="stop-color:#fff;stop-opacity:0"/></linearGradient><linearGradient id="linearGradient5161"><stop id="stop5163" offset="0" style="stop-color:#fff;stop-opacity:1"/><stop id="stop5165" offset="1" style="stop-color:#fff;stop-opacity:.38431373"/></linearGradient></defs><metadata id="metadata5198"/><g id="layer1" transform="translate(-384.73678,-157.36744)"><g id="g2728"><g id="g6303" transform="translate(15.093924,-106.06602)"><path style="opacity:1;fill:#000;fill-opacity:1;fill-rule:evenodd;stroke:none;stroke-width:1;stroke-linecap:butt;stroke-linejoin:miter;stroke-miterlimit:4;stroke-dasharray:none;stroke-opacity:1" id="path5212" d="M 403.92857,315.57648 A 44.285713,44.285713 0 1 1 315.35714,315.57648 A 44.285713,44.285713 0 1 1 403.92857,315.57648 z" transform="matrix(0.7822581,0,0,0.7822581,122.95218,51.214235)"/><g id="g5187" transform="matrix(0.9407692,0,0,0.6732771,233.27271,104.76541)"><path id="path5175" d="M 170.15162,325.95089 C 168.9834,319.85833 170.15162,274.04613 170.15162,248.09375 C 176.79427,263.42705 173.9465,277.17861 175.50876,291.66518 L 173.00876,292.73661 C 175.78066,318.43658 173.73695,335.34086 170.15162,325.95089 z" style="fill:#fff;fill-opacity:1;fill-rule:evenodd;stroke:#2552ff;stroke-width:1px;stroke-linecap:butt;stroke-linejoin:miter;stroke-opacity:1;filter:url(#filter5135)"/><path id="path5177" d="M 170.42773,325.83465 C 169.25951,319.74209 170.42773,273.92989 170.42773,247.97751 C 177.07038,263.31081 174.22261,277.06237 175.78487,291.54894 L 173.28487,292.62037 C 176.05677,318.32034 174.01306,335.22462 170.42773,325.83465 z" style="fill:none;fill-opacity:.75;fill-rule:evenodd;stroke:#000;stroke-width:1px;stroke-linecap:butt;stroke-linejoin:miter;stroke-opacity:1"/></g><g id="g5183" transform="matrix(0.9407692,0,0,0.6732771,230.65199,105.96769)"><path id="path5179" d="M 194.03375,245.8195 C 194.01491,246.20881 194.01954,246.8396 194.00272,247.27651 C 193.98758,246.89165 193.95747,246.31969 193.94068,245.97287 L 193.94068,249.04025 C 193.68345,257.22627 193.53038,270.30553 191.89325,273.19591 C 190.90112,274.46838 189.62048,274.06687 189.10128,270.93371 C 188.08521,264.80205 188.47476,251.8292 189.10128,245.97287 C 188.47189,249.76603 185.13874,267.52377 188.29472,276.64672 C 189.22285,279.32967 190.55773,279.66738 192.88594,280.67265 C 192.88519,293.97891 190.48283,317.59373 193.75455,324.37741 L 194.2509,324.42123 C 197.51673,317.62681 195.12028,294.12693 195.11951,280.82603 C 197.44771,279.82075 198.78259,279.52138 199.71073,276.83843 C 202.86671,267.71549 199.50254,249.91939 198.87314,246.12624 C 199.49966,251.98257 199.88921,264.99377 198.87314,271.12543 C 198.35394,274.25859 197.07332,274.62174 196.08119,273.34928 C 194.41742,270.41189 194.29967,256.95428 194.03375,248.8102 L 194.03375,245.8195 z" style="fill:#fff;fill-opacity:1;fill-rule:evenodd;stroke:#2552ff;stroke-width:1.10362709px;stroke-linecap:butt;stroke-linejoin:miter;stroke-opacity:1;filter:url(#filter5105)"/><path id="path5181" d="M 193.98104,245.89482 C 193.9622,246.28413 193.96683,246.91492 193.95001,247.35183 C 193.93487,246.96697 193.90476,246.39501 193.88797,246.04819 L 193.88797,249.11557 C 193.63074,257.30159 193.47767,270.38085 191.84054,273.27123 C 190.84841,274.5437 189.56777,274.14219 189.04857,271.00903 C 188.0325,264.87737 188.42205,251.90452 189.04857,246.04819 C 188.41918,249.84135 185.08603,267.59909 188.24201,276.72204 C 189.17014,279.40499 190.50502,279.7427 192.83323,280.74797 C 192.83248,294.05423 190.43012,317.66905 193.70184,324.45273 L 194.19819,324.49655 C 197.46402,317.70213 195.06757,294.20225 195.0668,280.90135 C 197.395,279.89607 198.72988,279.5967 199.65802,276.91375 C 202.814,267.79081 199.44983,249.99471 198.82043,246.20156 C 199.44695,252.05789 199.8365,265.06909 198.82043,271.20075 C 198.30123,274.33391 197.02061,274.69706 196.02848,273.4246 C 194.36471,270.48721 194.24696,257.0296 193.98104,248.88552 L 193.98104,245.89482 z" style="fill:none;fill-opacity:.75;fill-rule:evenodd;stroke:#000;stroke-width:1;stroke-linecap:butt;stroke-linejoin:miter;stroke-miterlimit:4;stroke-dasharray:none;stroke-opacity:1"/></g><path style="fill:url(#linearGradient5265);fill-opacity:1;fill-rule:evenodd;stroke:none;stroke-width:1;stroke-linecap:butt;stroke-linejoin:miter;stroke-miterlimit:4;stroke-opacity:1" id="path5256" d="M 403.92857,315.57648 C 359.58436,268.03692 319.05908,329.49044 318.38905,330.8858 C 318.13234,330.0711 316.08421,326.21807 315.35714,315.57648 C 315.35714,291.13076 335.19714,271.29076 359.64285,271.29076 C 384.08857,271.29076 403.92857,291.13076 403.92857,315.57648 z" transform="matrix(0.7822581,0,0,0.7822581,122.95232,51.214069)"/><path style="fill:url(#linearGradient6301);fill-opacity:1;fill-rule:evenodd;stroke:none;stroke-width:1;stroke-linecap:butt;stroke-linejoin:miter;stroke-miterlimit:4;stroke-opacity:1" id="path6299" d="M 438.92872,298.07634 C 404.2401,260.88814 372.53887,308.96065 372.01473,310.05218 C 371.81392,309.41488 370.21175,306.40081 369.643,298.07634 C 369.643,278.95348 385.163,263.43348 404.28585,263.43348 C 423.40871,263.43348 438.92872,278.95348 438.92872,298.07634 z"/></g></g></g></svg>